<svg xmlns="http://www.w3.org/2000/svg" width="128" height="128" viewBox="0 0 128 128" role="img" aria-labelledby="mhtr-logo-title mhtr-logo-desc">
  <title id="mhtr-logo-title">MHTR ridge and river mark</title>
  <desc id="mhtr-logo-desc">A circular mark showing Mukundara's ridges, forest, river and a subtle tiger stripe cue.</desc>
  <defs>
    <clipPath id="mhtr-logo-clip">
      <circle cx="64" cy="64" r="60" />
    </clipPath>
  </defs>
  <circle cx="64" cy="64" r="60" fill="#123d2c" />
  <g clip-path="url(#mhtr-logo-clip)">
    <rect width="128" height="128" fill="#123d2c" />
    <path d="M-6 84 L28 48 L49 68 L76 31 L136 84 Z" fill="#d8bd68" />
    <path d="M-4 96 C18 82 38 88 54 76 C72 62 90 66 134 49 L134 134 L-4 134 Z" fill="#6f8b57" opacity="0.72" />
    <path d="M18 101 C39 86 53 98 71 84 C88 71 101 76 118 61" fill="none" stroke="#d9eaee" stroke-width="9" stroke-linecap="round" />
    <path d="M90 18 L101 16 L93 44 Z" fill="#a4512c" />
    <path d="M110 23 L121 28 L101 55 Z" fill="#a4512c" />
    <path d="M76 14 L84 9 L82 35 Z" fill="#a4512c" />
  </g>
  <circle cx="64" cy="64" r="60" fill="none" stroke="#d8bd68" stroke-width="6" />
</svg>
